<?xml version="1.0" standalone="no"?>
<!DOCTYPE svg PUBLIC "-//W3C//DTD SVG 20010904//EN"
 "http://www.w3.org/TR/2001/REC-SVG-20010904/DTD/svg10.dtd">
<svg version="1.0" xmlns="http://www.w3.org/2000/svg"
 width="52.000000pt" height="52.000000pt" viewBox="0 0 52.000000 52.000000"
 preserveAspectRatio="xMidYMid meet">
<metadata>
Created by potrace 1.16, written by Peter Selinger 2001-2019
</metadata>
<g transform="translate(0.000000,52.000000) scale(0.100000,-0.100000)"
fill="#000000" stroke="none">
<path d="M230 450 c-18 -35 -27 -42 -50 -42 -3 0 -15 3 -26 6 -19 6 -23 2 -27
-26 -3 -18 -10 -52 -15 -76 -7 -31 -6 -42 2 -39 6 2 18 -6 27 -17 9 -11 32
-25 50 -31 19 -7 32 -16 29 -21 -3 -5 -8 -8 -12 -7 -5 2 -8 -18 -8 -43 0 -25
-4 -43 -8 -40 -5 3 -7 18 -5 33 3 19 -2 34 -14 45 -17 16 -22 18 -43 18 -5 0
-10 7 -10 16 0 14 2 15 18 3 15 -13 16 -12 4 3 -11 13 -19 15 -42 6 -28 -9
-61 -38 -44 -38 5 0 16 -4 24 -10 12 -7 12 -11 -3 -28 -20 -22 -36 -122 -19
-122 6 0 19 10 29 23 32 40 64 57 85 46 32 -17 58 -2 58 35 0 40 7 48 30 34
12 -8 26 -8 47 -1 25 9 31 8 41 -8 17 -26 41 -24 52 6 8 22 16 25 55 25 42 0
45 1 35 20 -6 11 -32 32 -58 47 -58 33 -62 39 -62 86 0 30 -4 37 -19 37 -23 0
-81 52 -81 73 0 33 -20 26 -40 -13z m70 -60 c0 -4 -5 -11 -11 -17 -6 -6 -8
-21 -4 -33 6 -18 13 -21 40 -18 30 3 34 1 37 -24 5 -30 -1 -35 -20 -16 -16 16
-42 -7 -42 -38 0 -27 16 -39 50 -37 14 1 6 -3 -17 -9 -57 -14 -74 -1 -73 61 1
60 -10 121 -21 121 -5 0 -9 4 -9 8 0 5 16 8 35 8 19 -1 35 -3 35 -6z m-110 -3
c0 -2 -11 -14 -24 -26 -21 -20 -24 -21 -22 -5 2 10 11 21 22 25 24 10 24 10
24 6z m27 -4 c-4 -3 -10 -3 -14 0 -3 4 0 7 7 7 7 0 10 -3 7 -7z m14 -34 c13
-24 23 -119 12 -119 -5 0 -20 11 -33 25 -13 14 -30 25 -38 25 -15 0 -8 54 10
77 12 15 38 10 49 -8z m119 6 c0 -3 -2 -5 -5 -5 -3 0 -5 2 -5 5 0 3 2 5 5 5 3
0 5 -2 5 -5z m-30 -10 c0 -3 -2 -5 -5 -5 -3 0 -5 2 -5 5 0 3 2 5 5 5 3 0 5 -2
5 -5z m80 -110 c0 -19 -5 -35 -11 -35 -6 0 -9 6 -6 14 4 11 -3 16 -26 18 -31
3 -41 18 -16 27 7 2 9 -1 5 -8 -5 -7 1 -11 14 -11 11 0 23 7 26 15 10 24 14
18 14 -20z m-20 20 c0 -3 -2 -5 -5 -5 -3 0 -5 2 -5 5 0 3 2 5 5 5 3 0 5 -2 5
-5z m-260 -60 c0 -3 -2 -5 -5 -5 -3 0 -5 2 -5 5 0 3 2 5 5 5 3 0 5 -2 5 -5z
m40 -27 c0 -5 -11 -13 -25 -18 -14 -5 -25 -15 -25 -21 0 -7 -2 -10 -5 -7 -12
12 18 57 36 55 11 -1 19 -5 19 -9z M180 315 c0 -3 2 -5 5 -5 3 0 5 2 5 5 0 3
-2 5 -5 5 -3 0 -5 -2 -5 -5z M100 255 c0 -3 2 -5 5 -5 3 0 5 2 5 5 0 3 -2 5
-5 5 -3 0 -5 -2 -5 -5z"/>
</g>
</svg>
